<svg xmlns="http://www.w3.org/2000/svg" viewBox="0 0 503 100" fill="none">
  <g transform="scale(0.102459)"><g fill="#7107e7">
<path d="M 537 627 L 530 623 L 521 623 L 515 625 L 505 632 L 487 650 L 444 699 L 394 760 L 389 769 L 389 773 L 391 776 L 393 777 L 401 776 L 432 752 L 483 709 L 530 665 L 537 657 L 542 647 L 542 636 Z"/>
<path d="M 691 383 L 675 384 L 447 486 L 442 493 L 443 500 L 495 534 L 381 652 L 307 743 L 276 790 L 496 606 L 531 583 L 553 583 L 591 631 L 599 630 L 690 394 Z"/>
<path d="M 547 186 L 512 197 L 320 308 L 278 342 L 268 377 L 268 629 L 295 680 L 331 636 L 323 615 L 330 372 L 533 250 L 568 249 L 763 362 L 780 389 L 778 624 L 763 643 L 569 756 L 511 751 L 475 785 L 526 814 L 562 818 L 794 689 L 824 663 L 835 630 L 835 374 L 825 342 L 797 316 L 591 197 Z"/></g></g>
  <text x="123" y="50"
    font-family="'Segoe UI','Inter','SF Pro Display',system-ui,sans-serif"
    font-size="72" font-weight="800" dominant-baseline="middle">
    <tspan fill="#1C1B2E">Test</tspan><tspan fill="#7107e7">Pilot</tspan>
  </text>
</svg>